<svg xmlns="http://www.w3.org/2000/svg" xmlns:xlink="http://www.w3.org/1999/xlink" version="1.1" data-diagram-type="SEQUENCE" style="width:2483px;height:1872px;background:#FFFFFF;" width="2483px" height="1872px" viewBox="0 0 2483 1872" zoomAndPan="magnify" preserveAspectRatio="none" contentStyleType="text/css"><?plantuml 1.2026.8?><defs/><g font-family="sans-serif" lengthAdjust="spacing"><g class="title" data-source-line="2"><text x="1023.938" y="29.533" fill="#000" font-size="14" textLength="433.843" font-weight="700">Успешное оформление заказа — Saga-хореография Sequence</text></g><rect x="16" y="49.609" width="432.297" height="1698.031" fill="#DCEEFF" style="stroke:#181818;stroke-width:0.5;"/><text x="174.128" y="63.104" fill="#000" font-size="13" textLength="116.042" font-weight="700">Клиентский канал</text><rect x="597.744" y="49.609" width="1461.931" height="1698.031" fill="#E2F0D9" style="stroke:#181818;stroke-width:0.5;"/><text x="1270.235" y="63.104" fill="#000" font-size="13" textLength="116.949" font-weight="700">Ядро приложения</text><rect x="2071.675" y="49.609" width="395.043" height="1698.031" fill="#EADCF8" style="stroke:#181818;stroke-width:0.5;"/><text x="2205.228" y="63.104" fill="#000" font-size="13" textLength="127.937" font-weight="700">Внешние участники</text><rect x="631.923" y="504.086" width="1520.454" height="333.352" fill="none" style="stroke:#000;stroke-width:1.5;"/><rect x="45.001" y="899.789" width="2107.376" height="291" fill="none" style="stroke:#000;stroke-width:1.5;"/><rect x="631.923" y="1313.844" width="1759.392" height="326.188" fill="none" style="stroke:#000;stroke-width:1.5;"/><g><title>..........</title><rect x="57.501" y="147.57" width="8" height="1516.461" fill="#000" fill-opacity="0"/><line x1="61.001" y1="147.57" x2="61.001" y2="1664.031" style="stroke:#181818;stroke-width:0.5;stroke-dasharray:5,5;"/></g><g><title>......... ..........</title><rect x="256.519" y="147.57" width="8" height="1516.461" fill="#000" fill-opacity="0"/><line x1="260.019" y1="147.57" x2="260.019" y2="1664.031" style="stroke:#181818;stroke-width:0.5;stroke-dasharray:5,5;"/></g><g><title>NGINX</title><rect x="415.628" y="147.57" width="8" height="1516.461" fill="#000" fill-opacity="0"/><line x1="419.128" y1="147.57" x2="419.128" y2="1664.031" style="stroke:#181818;stroke-width:0.5;stroke-dasharray:5,5;"/></g><g><title>Order Service</title><rect x="644.423" y="147.57" width="8" height="1516.461" fill="#000" fill-opacity="0"/><line x1="647.923" y1="147.57" x2="647.923" y2="1664.031" style="stroke:#181818;stroke-width:0.5;stroke-dasharray:5,5;"/></g><g><title>..... order</title><rect x="866.753" y="147.57" width="8" height="1516.461" fill="#000" fill-opacity="0"/><line x1="870.253" y1="147.57" x2="870.253" y2="1664.031" style="stroke:#181818;stroke-width:0.5;stroke-dasharray:5,5;"/></g><g><title>Inventory Service</title><rect x="1017.192" y="147.57" width="8" height="1516.461" fill="#000" fill-opacity="0"/><line x1="1020.692" y1="147.57" x2="1020.692" y2="1664.031" style="stroke:#181818;stroke-width:0.5;stroke-dasharray:5,5;"/></g><g><title>..... inventory</title><rect x="1183.544" y="147.57" width="8" height="1516.461" fill="#000" fill-opacity="0"/><line x1="1187.044" y1="147.57" x2="1187.044" y2="1664.031" style="stroke:#181818;stroke-width:0.5;stroke-dasharray:5,5;"/></g><g><title>Payment Service</title><rect x="1349.897" y="147.57" width="8" height="1516.461" fill="#000" fill-opacity="0"/><line x1="1353.397" y1="147.57" x2="1353.397" y2="1664.031" style="stroke:#181818;stroke-width:0.5;stroke-dasharray:5,5;"/></g><g><title>..... payment</title><rect x="1503.973" y="147.57" width="8" height="1516.461" fill="#000" fill-opacity="0"/><line x1="1507.473" y1="147.57" x2="1507.473" y2="1664.031" style="stroke:#181818;stroke-width:0.5;stroke-dasharray:5,5;"/></g><g><title>..... payment-succeeded</title><rect x="1665.613" y="147.57" width="8" height="1516.461" fill="#000" fill-opacity="0"/><line x1="1669.113" y1="147.57" x2="1669.113" y2="1664.031" style="stroke:#181818;stroke-width:0.5;stroke-dasharray:5,5;"/></g><g><title>Seller Notification Service</title><rect x="1852.282" y="147.57" width="8" height="1516.461" fill="#000" fill-opacity="0"/><line x1="1855.782" y1="147.57" x2="1855.782" y2="1664.031" style="stroke:#181818;stroke-width:0.5;stroke-dasharray:5,5;"/></g><g><title>Delivery Service</title><rect x="1998.606" y="147.57" width="8" height="1516.461" fill="#000" fill-opacity="0"/><line x1="2002.106" y1="147.57" x2="2002.106" y2="1664.031" style="stroke:#181818;stroke-width:0.5;stroke-dasharray:5,5;"/></g><g><title>......... ....</title><rect x="2132.877" y="147.57" width="8" height="1516.461" fill="#000" fill-opacity="0"/><line x1="2136.377" y1="147.57" x2="2136.377" y2="1664.031" style="stroke:#181818;stroke-width:0.5;stroke-dasharray:5,5;"/></g><g><title>........</title><rect x="2238.995" y="147.57" width="8" height="1516.461" fill="#000" fill-opacity="0"/><line x1="2242.495" y1="147.57" x2="2242.495" y2="1664.031" style="stroke:#181818;stroke-width:0.5;stroke-dasharray:5,5;"/></g><g><title>............. .........</title><rect x="2371.814" y="147.57" width="8" height="1516.461" fill="#000" fill-opacity="0"/><line x1="2375.314" y1="147.57" x2="2375.314" y2="1664.031" style="stroke:#181818;stroke-width:0.5;stroke-dasharray:5,5;"/></g><text x="20" y="144.494" fill="#000" font-size="14" textLength="76.002">Покупатель</text><ellipse cx="61.001" cy="78.461" rx="8" ry="8" fill="#E2E2F0" style="stroke:#181818;stroke-width:0.5;"/><path d="M61.001,86.461 L61.001,113.461 M48.001,94.461 L74.001,94.461 M61.001,113.461 L48.001,128.461 M61.001,113.461 L74.001,128.461" style="stroke:#181818;stroke-width:0.5;" fill="none"/><text x="178.231" y="144.494" fill="#000" font-size="14" textLength="157.575">Мобильное приложение</text><path d="M239.519,101.961 L239.519,125.961 M239.519,113.961 L256.519,113.961" style="stroke:#181818;stroke-width:0.5;" fill="none"/><ellipse cx="268.519" cy="113.961" rx="12" ry="12" fill="#E2E2F0" style="stroke:#181818;stroke-width:0.5;"/><text x="393.959" y="144.494" fill="#000" font-size="14" textLength="44.338">NGINX</text><ellipse cx="419.128" cy="113.961" rx="12" ry="12" fill="#E2E2F0" style="stroke:#181818;stroke-width:0.5;"/><polygon points="415.128,101.961,421.128,96.961,419.128,101.961,421.128,106.961,415.128,101.961" fill="#181818" style="stroke:#181818;stroke-width:1;stroke-linejoin:miter;stroke-miterlimit:10;"/><text x="601.744" y="144.494" fill="#000" font-size="14" textLength="86.358">Order Service</text><ellipse cx="647.923" cy="113.961" rx="12" ry="12" fill="#E2E2F0" style="stroke:#181818;stroke-width:0.5;"/><polygon points="643.923,101.961,649.923,96.961,647.923,101.961,649.923,106.961,643.923,101.961" fill="#181818" style="stroke:#181818;stroke-width:1;stroke-linejoin:miter;stroke-miterlimit:10;"/><path d="M828.035,119.961 L912.471,119.961 C917.471,119.961 917.471,133.766 917.471,133.766 C917.471,133.766 917.471,147.57 912.471,147.57 L828.035,147.57 C823.035,147.57 823.035,133.766 823.035,133.766 C823.035,133.766 823.035,119.961 828.035,119.961" style="stroke:#181818;stroke-width:0.5;" fill="#E2E2F0"/><path d="M912.471,119.961 C907.471,119.961 907.471,133.766 907.471,133.766 C907.471,147.57 912.471,147.57 912.471,147.57" style="stroke:#181818;stroke-width:0.5;" fill="none"/><text x="828.035" y="139.494" fill="#000" font-size="14" textLength="74.437">Топик order</text><text x="963.613" y="144.494" fill="#000" font-size="14" textLength="108.158">Inventory Service</text><ellipse cx="1020.692" cy="113.961" rx="12" ry="12" fill="#E2E2F0" style="stroke:#181818;stroke-width:0.5;"/><polygon points="1016.692,101.961,1022.692,96.961,1020.692,101.961,1022.692,106.961,1016.692,101.961" fill="#181818" style="stroke:#181818;stroke-width:1;stroke-linejoin:miter;stroke-miterlimit:10;"/><path d="M1132.764,119.961 L1241.325,119.961 C1246.325,119.961 1246.325,133.766 1246.325,133.766 C1246.325,133.766 1246.325,147.57 1241.325,147.57 L1132.764,147.57 C1127.764,147.57 1127.764,133.766 1127.764,133.766 C1127.764,133.766 1127.764,119.961 1132.764,119.961" style="stroke:#181818;stroke-width:0.5;" fill="#E2E2F0"/><path d="M1241.325,119.961 C1236.325,119.961 1236.325,133.766 1236.325,133.766 C1236.325,147.57 1241.325,147.57 1241.325,147.57" style="stroke:#181818;stroke-width:0.5;" fill="none"/><text x="1132.764" y="139.494" fill="#000" font-size="14" textLength="98.561">Топик inventory</text><text x="1297.487" y="144.494" fill="#000" font-size="14" textLength="105.82">Payment Service</text><ellipse cx="1353.397" cy="113.961" rx="12" ry="12" fill="#E2E2F0" style="stroke:#181818;stroke-width:0.5;"/><polygon points="1349.397,101.961,1355.397,96.961,1353.397,101.961,1355.397,106.961,1349.397,101.961" fill="#181818" style="stroke:#181818;stroke-width:1;stroke-linejoin:miter;stroke-miterlimit:10;"/><path d="M1454.748,119.961 L1560.198,119.961 C1565.198,119.961 1565.198,133.766 1565.198,133.766 C1565.198,133.766 1565.198,147.57 1560.198,147.57 L1454.748,147.57 C1449.748,147.57 1449.748,133.766 1449.748,133.766 C1449.748,133.766 1449.748,119.961 1454.748,119.961" style="stroke:#181818;stroke-width:0.5;" fill="#E2E2F0"/><path d="M1560.198,119.961 C1555.198,119.961 1555.198,133.766 1555.198,133.766 C1555.198,147.57 1560.198,147.57 1560.198,147.57" style="stroke:#181818;stroke-width:0.5;" fill="none"/><text x="1454.748" y="139.494" fill="#000" font-size="14" textLength="95.45">Топик payment</text><path d="M1580.198,119.961 L1758.027,119.961 C1763.027,119.961 1763.027,133.766 1763.027,133.766 C1763.027,133.766 1763.027,147.57 1758.027,147.57 L1580.198,147.57 C1575.198,147.57 1575.198,133.766 1575.198,133.766 C1575.198,133.766 1575.198,119.961 1580.198,119.961" style="stroke:#181818;stroke-width:0.5;" fill="#E2E2F0"/><path d="M1758.027,119.961 C1753.027,119.961 1753.027,133.766 1753.027,133.766 C1753.027,147.57 1758.027,147.57 1758.027,147.57" style="stroke:#181818;stroke-width:0.5;" fill="none"/><text x="1580.198" y="139.494" fill="#000" font-size="14" textLength="167.829">Топик payment-succeeded</text><text x="1773.027" y="144.494" fill="#000" font-size="14" textLength="159.51">Seller Notification Service</text><ellipse cx="1855.782" cy="113.961" rx="12" ry="12" fill="#E2E2F0" style="stroke:#181818;stroke-width:0.5;"/><polygon points="1851.782,101.961,1857.782,96.961,1855.782,101.961,1857.782,106.961,1851.782,101.961" fill="#181818" style="stroke:#181818;stroke-width:1;stroke-linejoin:miter;stroke-miterlimit:10;"/><text x="1948.537" y="144.494" fill="#000" font-size="14" textLength="101.138">Delivery Service</text><ellipse cx="2002.106" cy="113.961" rx="12" ry="12" fill="#E2E2F0" style="stroke:#181818;stroke-width:0.5;"/><polygon points="1998.106,101.961,2004.106,96.961,2002.106,101.961,2004.106,106.961,1998.106,101.961" fill="#181818" style="stroke:#181818;stroke-width:1;stroke-linejoin:miter;stroke-miterlimit:10;"/><text x="2075.675" y="144.494" fill="#000" font-size="14" textLength="115.404">Платёжный шлюз</text><path d="M2115.877,101.961 L2115.877,125.961 M2115.877,113.961 L2132.877,113.961" style="stroke:#181818;stroke-width:0.5;" fill="none"/><ellipse cx="2144.877" cy="113.961" rx="12" ry="12" fill="#E2E2F0" style="stroke:#181818;stroke-width:0.5;"/><text x="2207.079" y="144.494" fill="#000" font-size="14" textLength="64.832">Продавец</text><ellipse cx="2242.495" cy="78.461" rx="8" ry="8" fill="#E2E2F0" style="stroke:#181818;stroke-width:0.5;"/><path d="M2242.495,86.461 L2242.495,113.461 M2229.495,94.461 L2255.495,94.461 M2242.495,113.461 L2229.495,128.461 M2242.495,113.461 L2255.495,128.461" style="stroke:#181818;stroke-width:0.5;" fill="none"/><text x="2287.911" y="144.494" fill="#000" font-size="14" textLength="168.807">Логистический провайдер</text><path d="M2354.814,101.961 L2354.814,125.961 M2354.814,113.961 L2371.814,113.961" style="stroke:#181818;stroke-width:0.5;" fill="none"/><ellipse cx="2383.814" cy="113.961" rx="12" ry="12" fill="#E2E2F0" style="stroke:#181818;stroke-width:0.5;"/><text x="20" y="1678.564" fill="#000" font-size="14" textLength="76.002">Покупатель</text><ellipse cx="61.001" cy="1690.141" rx="8" ry="8" fill="#E2E2F0" style="stroke:#181818;stroke-width:0.5;"/><path d="M61.001,1698.141 L61.001,1725.141 M48.001,1706.141 L74.001,1706.141 M61.001,1725.141 L48.001,1740.141 M61.001,1725.141 L74.001,1740.141" style="stroke:#181818;stroke-width:0.5;" fill="none"/><text x="178.231" y="1678.564" fill="#000" font-size="14" textLength="157.575">Мобильное приложение</text><path d="M239.519,1685.641 L239.519,1709.641 M239.519,1697.641 L256.519,1697.641" style="stroke:#181818;stroke-width:0.5;" fill="none"/><ellipse cx="268.519" cy="1697.641" rx="12" ry="12" fill="#E2E2F0" style="stroke:#181818;stroke-width:0.5;"/><text x="393.959" y="1678.564" fill="#000" font-size="14" textLength="44.338">NGINX</text><ellipse cx="419.128" cy="1697.641" rx="12" ry="12" fill="#E2E2F0" style="stroke:#181818;stroke-width:0.5;"/><polygon points="415.128,1685.641,421.128,1680.641,419.128,1685.641,421.128,1690.641,415.128,1685.641" fill="#181818" style="stroke:#181818;stroke-width:1;stroke-linejoin:miter;stroke-miterlimit:10;"/><text x="601.744" y="1678.564" fill="#000" font-size="14" textLength="86.358">Order Service</text><ellipse cx="647.923" cy="1697.641" rx="12" ry="12" fill="#E2E2F0" style="stroke:#181818;stroke-width:0.5;"/><polygon points="643.923,1685.641,649.923,1680.641,647.923,1685.641,649.923,1690.641,643.923,1685.641" fill="#181818" style="stroke:#181818;stroke-width:1;stroke-linejoin:miter;stroke-miterlimit:10;"/><path d="M828.035,1664.031 L912.471,1664.031 C917.471,1664.031 917.471,1677.836 917.471,1677.836 C917.471,1677.836 917.471,1691.641 912.471,1691.641 L828.035,1691.641 C823.035,1691.641 823.035,1677.836 823.035,1677.836 C823.035,1677.836 823.035,1664.031 828.035,1664.031" style="stroke:#181818;stroke-width:0.5;" fill="#E2E2F0"/><path d="M912.471,1664.031 C907.471,1664.031 907.471,1677.836 907.471,1677.836 C907.471,1691.641 912.471,1691.641 912.471,1691.641" style="stroke:#181818;stroke-width:0.5;" fill="none"/><text x="828.035" y="1683.564" fill="#000" font-size="14" textLength="74.437">Топик order</text><text x="963.613" y="1678.564" fill="#000" font-size="14" textLength="108.158">Inventory Service</text><ellipse cx="1020.692" cy="1697.641" rx="12" ry="12" fill="#E2E2F0" style="stroke:#181818;stroke-width:0.5;"/><polygon points="1016.692,1685.641,1022.692,1680.641,1020.692,1685.641,1022.692,1690.641,1016.692,1685.641" fill="#181818" style="stroke:#181818;stroke-width:1;stroke-linejoin:miter;stroke-miterlimit:10;"/><path d="M1132.764,1664.031 L1241.325,1664.031 C1246.325,1664.031 1246.325,1677.836 1246.325,1677.836 C1246.325,1677.836 1246.325,1691.641 1241.325,1691.641 L1132.764,1691.641 C1127.764,1691.641 1127.764,1677.836 1127.764,1677.836 C1127.764,1677.836 1127.764,1664.031 1132.764,1664.031" style="stroke:#181818;stroke-width:0.5;" fill="#E2E2F0"/><path d="M1241.325,1664.031 C1236.325,1664.031 1236.325,1677.836 1236.325,1677.836 C1236.325,1691.641 1241.325,1691.641 1241.325,1691.641" style="stroke:#181818;stroke-width:0.5;" fill="none"/><text x="1132.764" y="1683.564" fill="#000" font-size="14" textLength="98.561">Топик inventory</text><text x="1297.487" y="1678.564" fill="#000" font-size="14" textLength="105.82">Payment Service</text><ellipse cx="1353.397" cy="1697.641" rx="12" ry="12" fill="#E2E2F0" style="stroke:#181818;stroke-width:0.5;"/><polygon points="1349.397,1685.641,1355.397,1680.641,1353.397,1685.641,1355.397,1690.641,1349.397,1685.641" fill="#181818" style="stroke:#181818;stroke-width:1;stroke-linejoin:miter;stroke-miterlimit:10;"/><path d="M1454.748,1664.031 L1560.198,1664.031 C1565.198,1664.031 1565.198,1677.836 1565.198,1677.836 C1565.198,1677.836 1565.198,1691.641 1560.198,1691.641 L1454.748,1691.641 C1449.748,1691.641 1449.748,1677.836 1449.748,1677.836 C1449.748,1677.836 1449.748,1664.031 1454.748,1664.031" style="stroke:#181818;stroke-width:0.5;" fill="#E2E2F0"/><path d="M1560.198,1664.031 C1555.198,1664.031 1555.198,1677.836 1555.198,1677.836 C1555.198,1691.641 1560.198,1691.641 1560.198,1691.641" style="stroke:#181818;stroke-width:0.5;" fill="none"/><text x="1454.748" y="1683.564" fill="#000" font-size="14" textLength="95.45">Топик payment</text><path d="M1580.198,1664.031 L1758.027,1664.031 C1763.027,1664.031 1763.027,1677.836 1763.027,1677.836 C1763.027,1677.836 1763.027,1691.641 1758.027,1691.641 L1580.198,1691.641 C1575.198,1691.641 1575.198,1677.836 1575.198,1677.836 C1575.198,1677.836 1575.198,1664.031 1580.198,1664.031" style="stroke:#181818;stroke-width:0.5;" fill="#E2E2F0"/><path d="M1758.027,1664.031 C1753.027,1664.031 1753.027,1677.836 1753.027,1677.836 C1753.027,1691.641 1758.027,1691.641 1758.027,1691.641" style="stroke:#181818;stroke-width:0.5;" fill="none"/><text x="1580.198" y="1683.564" fill="#000" font-size="14" textLength="167.829">Топик payment-succeeded</text><text x="1773.027" y="1678.564" fill="#000" font-size="14" textLength="159.51">Seller Notification Service</text><ellipse cx="1855.782" cy="1697.641" rx="12" ry="12" fill="#E2E2F0" style="stroke:#181818;stroke-width:0.5;"/><polygon points="1851.782,1685.641,1857.782,1680.641,1855.782,1685.641,1857.782,1690.641,1851.782,1685.641" fill="#181818" style="stroke:#181818;stroke-width:1;stroke-linejoin:miter;stroke-miterlimit:10;"/><text x="1948.537" y="1678.564" fill="#000" font-size="14" textLength="101.138">Delivery Service</text><ellipse cx="2002.106" cy="1697.641" rx="12" ry="12" fill="#E2E2F0" style="stroke:#181818;stroke-width:0.5;"/><polygon points="1998.106,1685.641,2004.106,1680.641,2002.106,1685.641,2004.106,1690.641,1998.106,1685.641" fill="#181818" style="stroke:#181818;stroke-width:1;stroke-linejoin:miter;stroke-miterlimit:10;"/><text x="2075.675" y="1678.564" fill="#000" font-size="14" textLength="115.404">Платёжный шлюз</text><path d="M2115.877,1685.641 L2115.877,1709.641 M2115.877,1697.641 L2132.877,1697.641" style="stroke:#181818;stroke-width:0.5;" fill="none"/><ellipse cx="2144.877" cy="1697.641" rx="12" ry="12" fill="#E2E2F0" style="stroke:#181818;stroke-width:0.5;"/><text x="2207.079" y="1678.564" fill="#000" font-size="14" textLength="64.832">Продавец</text><ellipse cx="2242.495" cy="1690.141" rx="8" ry="8" fill="#E2E2F0" style="stroke:#181818;stroke-width:0.5;"/><path d="M2242.495,1698.141 L2242.495,1725.141 M2229.495,1706.141 L2255.495,1706.141 M2242.495,1725.141 L2229.495,1740.141 M2242.495,1725.141 L2255.495,1740.141" style="stroke:#181818;stroke-width:0.5;" fill="none"/><text x="2287.911" y="1678.564" fill="#000" font-size="14" textLength="168.807">Логистический провайдер</text><path d="M2354.814,1685.641 L2354.814,1709.641 M2354.814,1697.641 L2371.814,1697.641" style="stroke:#181818;stroke-width:0.5;" fill="none"/><ellipse cx="2383.814" cy="1697.641" rx="12" ry="12" fill="#E2E2F0" style="stroke:#181818;stroke-width:0.5;"/><rect x="10" y="176.746" width="2462.718" height="3" fill="#EEE" style="stroke:#EEE;stroke-width:1;"/><line x1="10" y1="176.746" x2="2472.718" y2="176.746" style="stroke:#000;stroke-width:1;"/><line x1="10" y1="179.746" x2="2472.718" y2="179.746" style="stroke:#000;stroke-width:1;"/><rect x="1158.768" y="165.57" width="165.182" height="24.352" fill="#EEE" style="stroke:#000;stroke-width:2;"/><text x="1164.768" y="183.065" fill="#000" font-size="13" textLength="147.57" font-weight="700">Подтверждение заказа</text><polygon points="248.019,218.273,258.019,222.273,248.019,226.273,252.019,222.273" fill="#181818" style="stroke:#181818;stroke-width:1;stroke-linejoin:miter;stroke-miterlimit:10;"/><line x1="61.001" y1="222.273" x2="254.019" y2="222.273" style="stroke:#181818;stroke-width:1;"/><text x="68.001" y="217.417" fill="#000" font-size="13" textLength="175.018">Подтверждает состав заказа</text><polygon points="407.128,248.625,417.128,252.625,407.128,256.625,411.128,252.625" fill="#181818" style="stroke:#181818;stroke-width:1;stroke-linejoin:miter;stroke-miterlimit:10;"/><line x1="260.019" y1="252.625" x2="413.128" y2="252.625" style="stroke:#181818;stroke-width:1;"/><text x="267.019" y="247.769" fill="#000" font-size="13" textLength="135.11">POST /orders/checkout</text><polygon points="635.923,278.977,645.923,282.977,635.923,286.977,639.923,282.977" fill="#181818" style="stroke:#181818;stroke-width:1;stroke-linejoin:miter;stroke-miterlimit:10;"/><line x1="419.128" y1="282.977" x2="641.923" y2="282.977" style="stroke:#181818;stroke-width:1;"/><text x="426.128" y="278.12" fill="#000" font-size="13" textLength="185.066">Передаёт запрос оформления</text><polygon points="858.253,309.328,868.253,313.328,858.253,317.328,862.253,313.328" fill="#181818" style="stroke:#181818;stroke-width:1;stroke-linejoin:miter;stroke-miterlimit:10;"/><line x1="647.923" y1="313.328" x2="864.253" y2="313.328" style="stroke:#181818;stroke-width:1;"/><text x="654.923" y="308.472" fill="#000" font-size="13" textLength="126.439">OrderConfirmedEvent</text><polygon points="1008.692,339.68,1018.692,343.68,1008.692,347.68,1012.692,343.68" fill="#181818" style="stroke:#181818;stroke-width:1;stroke-linejoin:miter;stroke-miterlimit:10;"/><line x1="870.253" y1="343.68" x2="1014.692" y2="343.68" style="stroke:#181818;stroke-width:1;"/><text x="877.253" y="338.823" fill="#000" font-size="13" textLength="126.439">OrderConfirmedEvent</text><polygon points="271.019,370.031,261.019,374.031,271.019,378.031,267.019,374.031" fill="#181818" style="stroke:#181818;stroke-width:1;stroke-linejoin:miter;stroke-miterlimit:10;"/><line x1="265.019" y1="374.031" x2="418.128" y2="374.031" style="stroke:#181818;stroke-width:1;stroke-dasharray:2,2;"/><text x="277.019" y="369.175" fill="#000" font-size="13" textLength="127.918">202 Accepted, orderId</text><rect x="10" y="403.207" width="2462.718" height="3" fill="#EEE" style="stroke:#EEE;stroke-width:1;"/><line x1="10" y1="403.207" x2="2472.718" y2="403.207" style="stroke:#000;stroke-width:1;"/><line x1="10" y1="406.207" x2="2472.718" y2="406.207" style="stroke:#000;stroke-width:1;"/><rect x="1121.888" y="392.031" width="238.942" height="24.352" fill="#EEE" style="stroke:#000;stroke-width:2;"/><text x="1127.888" y="409.526" fill="#000" font-size="13" textLength="221.33" font-weight="700">Резервирование и начало оплаты</text><line x1="1020.692" y1="448.734" x2="1062.692" y2="448.734" style="stroke:#181818;stroke-width:1;"/><line x1="1062.692" y1="448.734" x2="1062.692" y2="461.734" style="stroke:#181818;stroke-width:1;"/><line x1="1021.692" y1="461.734" x2="1062.692" y2="461.734" style="stroke:#181818;stroke-width:1;"/><polygon points="1031.692,457.734,1021.692,461.734,1031.692,465.734,1027.692,461.734" fill="#181818" style="stroke:#181818;stroke-width:1;stroke-linejoin:miter;stroke-miterlimit:10;"/><text x="1027.692" y="443.878" fill="#000" font-size="13" textLength="124.909">Резервирует товары</text><polygon points="1175.044,488.086,1185.044,492.086,1175.044,496.086,1179.044,492.086" fill="#181818" style="stroke:#181818;stroke-width:1;stroke-linejoin:miter;stroke-miterlimit:10;"/><line x1="1020.692" y1="492.086" x2="1181.044" y2="492.086" style="stroke:#181818;stroke-width:1;"/><text x="1027.692" y="487.229" fill="#000" font-size="13" textLength="142.353">InventoryReservedEvent</text><path d="M631.923,504.086 L697.153,504.086 L697.153,512.438 L687.153,522.438 L631.923,522.438 L631.923,504.086" style="stroke:#000;stroke-width:1.5;" fill="#EEE"/><rect x="631.923" y="504.086" width="1520.454" height="333.352" fill="none" style="stroke:#000;stroke-width:1.5;"/><text x="646.923" y="518.581" fill="#000" font-size="13" textLength="20.23" font-weight="700">par</text><text x="712.153" y="517.505" fill="#000" font-size="11" textLength="157.701" font-weight="700">[Обновление статуса заказа]</text><polygon points="658.923,550.789,648.923,554.789,658.923,558.789,654.923,554.789" fill="#181818" style="stroke:#181818;stroke-width:1;stroke-linejoin:miter;stroke-miterlimit:10;"/><line x1="652.923" y1="554.789" x2="1186.044" y2="554.789" style="stroke:#181818;stroke-width:1;"/><text x="664.923" y="549.933" fill="#000" font-size="13" textLength="142.353">InventoryReservedEvent</text><line x1="647.923" y1="601.492" x2="689.923" y2="601.492" style="stroke:#181818;stroke-width:1;"/><line x1="689.923" y1="601.492" x2="689.923" y2="614.492" style="stroke:#181818;stroke-width:1;"/><line x1="648.923" y1="614.492" x2="689.923" y2="614.492" style="stroke:#181818;stroke-width:1;"/><polygon points="658.923,610.492,648.923,614.492,658.923,618.492,654.923,614.492" fill="#181818" style="stroke:#181818;stroke-width:1;stroke-linejoin:miter;stroke-miterlimit:10;"/><text x="654.923" y="580.284" fill="#000" font-size="13" textLength="133.675">Устанавливает статус</text><text x="654.923" y="596.636" fill="#000" font-size="13" textLength="116.524">«Ожидает оплаты»</text><line x1="631.923" y1="623.492" x2="2152.377" y2="623.492" style="stroke:#000;stroke-width:1;stroke-dasharray:2,2;"/><text x="636.923" y="636.911" fill="#000" font-size="11" textLength="139.074" font-weight="700">[Инициирование оплаты]</text><polygon points="1341.397,660.68,1351.397,664.68,1341.397,668.68,1345.397,664.68" fill="#181818" style="stroke:#181818;stroke-width:1;stroke-linejoin:miter;stroke-miterlimit:10;"/><line x1="1187.044" y1="664.68" x2="1347.397" y2="664.68" style="stroke:#181818;stroke-width:1;"/><text x="1194.044" y="659.823" fill="#000" font-size="13" textLength="142.353">InventoryReservedEvent</text><polygon points="2124.377,691.031,2134.377,695.031,2124.377,699.031,2128.377,695.031" fill="#181818" style="stroke:#181818;stroke-width:1;stroke-linejoin:miter;stroke-miterlimit:10;"/><line x1="1353.397" y1="695.031" x2="2130.377" y2="695.031" style="stroke:#181818;stroke-width:1;"/><text x="1360.397" y="690.175" fill="#000" font-size="13" textLength="98.979">POST /payments</text><polygon points="1364.397,721.383,1354.397,725.383,1364.397,729.383,1360.397,725.383" fill="#181818" style="stroke:#181818;stroke-width:1;stroke-linejoin:miter;stroke-miterlimit:10;"/><line x1="1358.397" y1="725.383" x2="2135.377" y2="725.383" style="stroke:#181818;stroke-width:1;stroke-dasharray:2,2;"/><text x="1370.397" y="720.526" fill="#000" font-size="13" textLength="66.466">paymentUrl</text><polygon points="1495.473,751.734,1505.473,755.734,1495.473,759.734,1499.473,755.734" fill="#181818" style="stroke:#181818;stroke-width:1;stroke-linejoin:miter;stroke-miterlimit:10;"/><line x1="1353.397" y1="755.734" x2="1501.473" y2="755.734" style="stroke:#181818;stroke-width:1;"/><text x="1360.397" y="750.878" fill="#000" font-size="13" textLength="130.076">PaymentInitiatedEvent</text><polygon points="658.923,782.086,648.923,786.086,658.923,790.086,654.923,786.086" fill="#181818" style="stroke:#181818;stroke-width:1;stroke-linejoin:miter;stroke-miterlimit:10;"/><line x1="652.923" y1="786.086" x2="1506.473" y2="786.086" style="stroke:#181818;stroke-width:1;"/><text x="664.923" y="781.229" fill="#000" font-size="13" textLength="205.201">PaymentInitiatedEvent(paymentUrl)</text><line x1="647.923" y1="816.438" x2="689.923" y2="816.438" style="stroke:#181818;stroke-width:1;"/><line x1="689.923" y1="816.438" x2="689.923" y2="829.438" style="stroke:#181818;stroke-width:1;"/><line x1="648.923" y1="829.438" x2="689.923" y2="829.438" style="stroke:#181818;stroke-width:1;"/><polygon points="658.923,825.438,648.923,829.438,658.923,833.438,654.923,829.438" fill="#181818" style="stroke:#181818;stroke-width:1;stroke-linejoin:miter;stroke-miterlimit:10;"/><text x="654.923" y="811.581" fill="#000" font-size="13" textLength="135.059">Сохраняет paymentUrl</text><rect x="10" y="872.613" width="2462.718" height="3" fill="#EEE" style="stroke:#EEE;stroke-width:1;"/><line x1="10" y1="872.613" x2="2472.718" y2="872.613" style="stroke:#000;stroke-width:1;"/><line x1="10" y1="875.613" x2="2472.718" y2="875.613" style="stroke:#000;stroke-width:1;"/><rect x="1209.029" y="861.438" width="64.661" height="24.352" fill="#EEE" style="stroke:#000;stroke-width:2;"/><text x="1215.029" y="878.933" fill="#000" font-size="13" textLength="47.049" font-weight="700">Оплата</text><path d="M45.001,899.789 L105.172,899.789 L105.172,908.141 L95.172,918.141 L45.001,918.141 L45.001,899.789" style="stroke:#000;stroke-width:1.5;" fill="#EEE"/><rect x="45.001" y="899.789" width="2107.376" height="291" fill="none" style="stroke:#000;stroke-width:1.5;"/><text x="60.001" y="914.284" fill="#000" font-size="13" textLength="15.171" font-weight="700">alt</text><text x="120.172" y="913.208" fill="#000" font-size="11" textLength="114.909" font-weight="700">[Карта не привязана]</text><polygon points="248.019,946.492,258.019,950.492,248.019,954.492,252.019,950.492" fill="#181818" style="stroke:#181818;stroke-width:1;stroke-linejoin:miter;stroke-miterlimit:10;"/><line x1="61.001" y1="950.492" x2="254.019" y2="950.492" style="stroke:#181818;stroke-width:1;"/><text x="68.001" y="945.636" fill="#000" font-size="13" textLength="120.745">Переходит к оплате</text><polygon points="407.128,976.844,417.128,980.844,407.128,984.844,411.128,980.844" fill="#181818" style="stroke:#181818;stroke-width:1;stroke-linejoin:miter;stroke-miterlimit:10;"/><line x1="260.019" y1="980.844" x2="413.128" y2="980.844" style="stroke:#181818;stroke-width:1;"/><text x="267.019" y="975.987" fill="#000" font-size="13" textLength="124.281">GET /orders/{orderId}</text><polygon points="635.923,1007.195,645.923,1011.195,635.923,1015.195,639.923,1011.195" fill="#181818" style="stroke:#181818;stroke-width:1;stroke-linejoin:miter;stroke-miterlimit:10;"/><line x1="419.128" y1="1011.195" x2="641.923" y2="1011.195" style="stroke:#181818;stroke-width:1;"/><text x="426.128" y="1006.339" fill="#000" font-size="13" textLength="204.794">Запрашивает статус и paymentUrl</text><polygon points="430.128,1037.547,420.128,1041.547,430.128,1045.547,426.128,1041.547" fill="#181818" style="stroke:#181818;stroke-width:1;stroke-linejoin:miter;stroke-miterlimit:10;"/><line x1="424.128" y1="1041.547" x2="646.923" y2="1041.547" style="stroke:#181818;stroke-width:1;stroke-dasharray:2,2;"/><text x="436.128" y="1036.69" fill="#000" font-size="13" textLength="122.478">Статус и paymentUrl</text><polygon points="271.019,1067.898,261.019,1071.898,271.019,1075.898,267.019,1071.898" fill="#181818" style="stroke:#181818;stroke-width:1;stroke-linejoin:miter;stroke-miterlimit:10;"/><line x1="265.019" y1="1071.898" x2="418.128" y2="1071.898" style="stroke:#181818;stroke-width:1;stroke-dasharray:2,2;"/><text x="277.019" y="1067.042" fill="#000" font-size="13" textLength="122.478">Статус и paymentUrl</text><polygon points="2124.377,1098.25,2134.377,1102.25,2124.377,1106.25,2128.377,1102.25" fill="#181818" style="stroke:#181818;stroke-width:1;stroke-linejoin:miter;stroke-miterlimit:10;"/><line x1="260.019" y1="1102.25" x2="2130.377" y2="1102.25" style="stroke:#181818;stroke-width:1;"/><text x="267.019" y="1097.394" fill="#000" font-size="13" textLength="105.485">GET {paymentUrl}</text><polygon points="2124.377,1128.602,2134.377,1132.602,2124.377,1136.602,2128.377,1132.602" fill="#181818" style="stroke:#181818;stroke-width:1;stroke-linejoin:miter;stroke-miterlimit:10;"/><line x1="61.001" y1="1132.602" x2="2130.377" y2="1132.602" style="stroke:#181818;stroke-width:1;"/><text x="68.001" y="1127.745" fill="#000" font-size="13" textLength="132.025">Вводит данные карты</text><line x1="45.001" y1="1141.602" x2="2152.377" y2="1141.602" style="stroke:#000;stroke-width:1;stroke-dasharray:2,2;"/><text x="50.001" y="1155.021" fill="#000" font-size="11" textLength="99.091" font-weight="700">[Карта привязана]</text><polygon points="2124.377,1178.789,2134.377,1182.789,2124.377,1186.789,2128.377,1182.789" fill="#181818" style="stroke:#181818;stroke-width:1;stroke-linejoin:miter;stroke-miterlimit:10;"/><line x1="1353.397" y1="1182.789" x2="2130.377" y2="1182.789" style="stroke:#181818;stroke-width:1;"/><text x="1360.397" y="1177.933" fill="#000" font-size="13" textLength="164.753">POST /payments/{id}/charge</text><polygon points="1364.397,1223.141,1354.397,1227.141,1364.397,1231.141,1360.397,1227.141" fill="#181818" style="stroke:#181818;stroke-width:1;stroke-linejoin:miter;stroke-miterlimit:10;"/><line x1="1358.397" y1="1227.141" x2="2135.377" y2="1227.141" style="stroke:#181818;stroke-width:1;"/><text x="1370.397" y="1222.284" fill="#000" font-size="13" textLength="211.498">POST /payment-notifications (успех)</text><polygon points="1657.113,1253.492,1667.113,1257.492,1657.113,1261.492,1661.113,1257.492" fill="#181818" style="stroke:#181818;stroke-width:1;stroke-linejoin:miter;stroke-miterlimit:10;"/><line x1="1353.397" y1="1257.492" x2="1663.113" y2="1257.492" style="stroke:#181818;stroke-width:1;"/><text x="1360.397" y="1252.636" fill="#000" font-size="13" textLength="149.595">PaymentSucceededEvent</text><rect x="10" y="1286.668" width="2462.718" height="3" fill="#EEE" style="stroke:#EEE;stroke-width:1;"/><line x1="10" y1="1286.668" x2="2472.718" y2="1286.668" style="stroke:#000;stroke-width:1;"/><line x1="10" y1="1289.668" x2="2472.718" y2="1289.668" style="stroke:#000;stroke-width:1;"/><rect x="1163.529" y="1275.492" width="155.661" height="24.352" fill="#EEE" style="stroke:#000;stroke-width:2;"/><text x="1169.529" y="1292.987" fill="#000" font-size="13" textLength="138.049" font-weight="700">Подготовка доставки</text><path d="M631.923,1313.844 L697.153,1313.844 L697.153,1322.195 L687.153,1332.195 L631.923,1332.195 L631.923,1313.844" style="stroke:#000;stroke-width:1.5;" fill="#EEE"/><rect x="631.923" y="1313.844" width="1759.392" height="326.188" fill="none" style="stroke:#000;stroke-width:1.5;"/><text x="646.923" y="1328.339" fill="#000" font-size="13" textLength="20.23" font-weight="700">par</text><text x="712.153" y="1327.263" fill="#000" font-size="11" textLength="113.282" font-weight="700">[Обновление заказа]</text><polygon points="658.923,1360.547,648.923,1364.547,658.923,1368.547,654.923,1364.547" fill="#181818" style="stroke:#181818;stroke-width:1;stroke-linejoin:miter;stroke-miterlimit:10;"/><line x1="652.923" y1="1364.547" x2="1668.113" y2="1364.547" style="stroke:#181818;stroke-width:1;"/><text x="664.923" y="1359.69" fill="#000" font-size="13" textLength="149.595">PaymentSucceededEvent</text><line x1="647.923" y1="1411.25" x2="689.923" y2="1411.25" style="stroke:#181818;stroke-width:1;"/><line x1="689.923" y1="1411.25" x2="689.923" y2="1424.25" style="stroke:#181818;stroke-width:1;"/><line x1="648.923" y1="1424.25" x2="689.923" y2="1424.25" style="stroke:#181818;stroke-width:1;"/><polygon points="658.923,1420.25,648.923,1424.25,658.923,1428.25,654.923,1424.25" fill="#181818" style="stroke:#181818;stroke-width:1;stroke-linejoin:miter;stroke-miterlimit:10;"/><text x="654.923" y="1390.042" fill="#000" font-size="13" textLength="133.675">Устанавливает статус</text><text x="654.923" y="1406.394" fill="#000" font-size="13" textLength="208.33">«Оплачен и готовится к отправке»</text><line x1="631.923" y1="1433.25" x2="2391.314" y2="1433.25" style="stroke:#000;stroke-width:1;stroke-dasharray:2,2;"/><text x="636.923" y="1446.669" fill="#000" font-size="11" textLength="113.491" font-weight="700">[Создание доставки]</text><polygon points="1990.106,1470.438,2000.106,1474.438,1990.106,1478.438,1994.106,1474.438" fill="#181818" style="stroke:#181818;stroke-width:1;stroke-linejoin:miter;stroke-miterlimit:10;"/><line x1="1669.113" y1="1474.438" x2="1996.106" y2="1474.438" style="stroke:#181818;stroke-width:1;"/><text x="1676.113" y="1469.581" fill="#000" font-size="13" textLength="149.595">PaymentSucceededEvent</text><polygon points="2363.314,1500.789,2373.314,1504.789,2363.314,1508.789,2367.314,1504.789" fill="#181818" style="stroke:#181818;stroke-width:1;stroke-linejoin:miter;stroke-miterlimit:10;"/><line x1="2002.106" y1="1504.789" x2="2369.314" y2="1504.789" style="stroke:#181818;stroke-width:1;"/><text x="2009.106" y="1499.933" fill="#000" font-size="13" textLength="141.604">POST /delivery-requests</text><polygon points="2013.106,1531.141,2003.106,1535.141,2013.106,1539.141,2009.106,1535.141" fill="#181818" style="stroke:#181818;stroke-width:1;stroke-linejoin:miter;stroke-miterlimit:10;"/><line x1="2007.106" y1="1535.141" x2="2374.314" y2="1535.141" style="stroke:#181818;stroke-width:1;stroke-dasharray:2,2;"/><text x="2019.106" y="1530.284" fill="#000" font-size="13" textLength="71.551">201 Created</text><line x1="631.923" y1="1544.141" x2="2391.314" y2="1544.141" style="stroke:#000;stroke-width:1;stroke-dasharray:2,2;"/><text x="636.923" y="1557.56" fill="#000" font-size="11" textLength="137.398" font-weight="700">[Уведомление продавца]</text><polygon points="1843.782,1581.328,1853.782,1585.328,1843.782,1589.328,1847.782,1585.328" fill="#181818" style="stroke:#181818;stroke-width:1;stroke-linejoin:miter;stroke-miterlimit:10;"/><line x1="1669.113" y1="1585.328" x2="1849.782" y2="1585.328" style="stroke:#181818;stroke-width:1;"/><text x="1676.113" y="1580.472" fill="#000" font-size="13" textLength="149.595">PaymentSucceededEvent</text><polygon points="2230.495,1628.031,2240.495,1632.031,2230.495,1636.031,2234.495,1632.031" fill="#181818" style="stroke:#181818;stroke-width:1;stroke-linejoin:miter;stroke-miterlimit:10;"/><line x1="1855.782" y1="1632.031" x2="2236.495" y2="1632.031" style="stroke:#181818;stroke-width:1;"/><text x="1862.782" y="1610.823" fill="#000" font-size="13" textLength="84.798">Уведомляет о</text><text x="1862.782" y="1627.175" fill="#000" font-size="13" textLength="112.227">подготовке товара</text><g class="legend" data-source-line="79"><rect x="2277.38" y="1768.641" width="187.338" height="84.438" fill="#DDD" style="stroke:#000;stroke-width:1;" rx="7.5" ry="7.5"/><text x="2286.27" y="1790.174" fill="#000" font-size="14" textLength="33.476" font-weight="700">Цвет</text><text x="2327.524" y="1790.174" fill="#000" font-size="14" textLength="48.973" font-weight="700">Группа</text><rect x="2282.38" y="1793.25" width="41.255" height="17.609" fill="#DCEEFF" style="stroke:none;"/><text x="2282.38" y="1807.783" fill="#000" font-size="14"> </text><text x="2327.524" y="1807.783" fill="#000" font-size="14" textLength="116.327">Клиентский канал</text><rect x="2282.38" y="1810.859" width="41.255" height="17.609" fill="#E2F0D9" style="stroke:none;"/><text x="2282.38" y="1825.393" fill="#000" font-size="14"> </text><text x="2327.524" y="1825.393" fill="#000" font-size="14" textLength="117.168">Ядро приложения</text><rect x="2282.38" y="1828.469" width="41.255" height="17.609" fill="#EADCF8" style="stroke:none;"/><text x="2282.38" y="1843.002" fill="#000" font-size="14"> </text><text x="2327.524" y="1843.002" fill="#000" font-size="14" textLength="128.304">Внешние участники</text><line x1="2282.38" y1="1775.641" x2="2459.718" y2="1775.641" style="stroke:#000;stroke-width:1;"/><line x1="2282.38" y1="1793.25" x2="2459.718" y2="1793.25" style="stroke:#000;stroke-width:1;"/><line x1="2282.38" y1="1810.859" x2="2459.718" y2="1810.859" style="stroke:#000;stroke-width:1;"/><line x1="2282.38" y1="1828.469" x2="2459.718" y2="1828.469" style="stroke:#000;stroke-width:1;"/><line x1="2282.38" y1="1846.078" x2="2459.718" y2="1846.078" style="stroke:#000;stroke-width:1;"/><line x1="2282.38" y1="1775.641" x2="2282.38" y2="1846.078" style="stroke:#000;stroke-width:1;"/><line x1="2323.635" y1="1775.641" x2="2323.635" y2="1846.078" style="stroke:#000;stroke-width:1;"/><line x1="2459.718" y1="1775.641" x2="2459.718" y2="1846.078" style="stroke:#000;stroke-width:1;"/></g><?plantuml-src hLTRRznK47xthpWABwt4AY5FW4YbAfSgBsb5GEAXKkHuJxSMZhtOtf0eYPGBQP62Y0f8840j9H8lFB0iwsQx8RjIVu7z5_WbV3F7zxKtGYAIjSuvCz-PopTpnhxfMrA45z5HE0w3wClmEXo5WGX7qHTu3iE_mwimmEA05Y_3RZZ4Wr_np-5tObrlwOteb0K3wFs5touK1z6vM9UVTQHjI4tRT7R4JFWZW0O45HtZh27UNmi6kyPpDIFUMbfSNbvPqGJ-TCDtNEYy0EOmEe5btUWOkbVHLpD2zuJHyNndIxeilEbqxARkxaB-PyZ_2MJ89NwCOH8MyC-hn0-6s78sJKjkwEqsWnYExRkE9MRMxgskVS8ITikqTpHfDt72JkB57s4VWACAtEWSFYpFhymjlLT4lEysfOjmkDkc8HdPeHKMGeWw4h2_0cSClA7QowGsVATj6aN0LNjRsWZGRW7KJ5PhWDFzedJL0G_qtIti5k3RQgq6FDxDI-Q0Q-KRNiSmf6pAPa4pNQqoRbrQ5kAvvlZc8zFGVTEn2uPwlBzXv_QB04lIChTbANhDUB6Sxs-GMbKLL03HIVGKL3m26Ma19AQStrrQN7ctJCKNu0P86pq3FwwZCv0TA5VHr-5bmTMMxilFzTqYwubXOHzbqSFPJt9UbG_vYMeEr2E31Z0jo2fhp20zWBm6L10TCepbj4pFDmrle-qwsoRHC7LuOK5mmVK1HWSVml9-TUqlB6X92Oh6dLmjYVUhCBfuEnQmRSIMmgy2d9RJ1nhN7O0Ut5__ICno5NYpncDfVEfqV4tjGemtr7a1jn-S4pt3EGpDxaT75NqiEjUKQeAXI0OaBjH5ntvakbkokKm5ekKbe92MJOruR5qv9lDpy-8kEDtsPVDjTUfgKqNy5rXroHxqO5kIipZc0q7TaJX7dKPm-IXQdL4ECcjAffLHqK8v0ySA7WjdDSffCD8cyw7qK2U9WstT5U5pDDbhXihk1fLPM7Q2F7UB-INMba_8PR3cAD8gPeeykuWfTCtbGLTAB-LNPi53-ytlCFCLjXFwvOFtvagJbeThxmTcn1E8JSG-9rxdG5p4qrr8X3BvfEXJZiVhNbu-5MeK3ehVFdQjEl0aWN4JNxLDtmJKf4MJYQXKkPKTURic9ozHOQTqzQFJdNEmSsQYloYcFqy2gXg8Rla2Gm6HaLQepoQtQWyeboh7gdLFwJLS-pI28D43IlCmbxemOFtg_d9lEMilUt5D7h3yP8_vFcufNJJnQiPHiPQI4mSgTsJuSgf2JVUuGQletIJ7oC-zJETW8gIJAhZsUbb4-vmAkiG2djWeOoWALK6v35Odxp_mVtRFR1wWrUjkIp9l9ceXNme5tKR-llV4BMv3DD2UtjOgB2XD61dtrvCDLIxPfOXxTXJtpo4vsyykCxfoYT6rlN6Y6TQPCLcB9Nl-XvweIkCf6SSNJERNW2PpJEvSGbXZmhDxGTemKUhmef-roL8SRd8lcREcUfWAGM5oOabJduWrNFhKyEB-MQ7GA1uyF_UEM7GbTRZOgmiQLiYLukVEE1l4S4VScBgAoNEgcrNoAGpdDMzMt5d3qKCREImpCiXTxh2KcwubMpJSkMRhiQ_jWyY_yKnsBEZzMvuAnlHf9VQr_G_YpwyxOb_SyAccnDMN3ejF-oQAXNb4Pk6R1ceem6XbklOl?></g></svg>